<svg xmlns="http://www.w3.org/2000/svg" xmlns:xlink="http://www.w3.org/1999/xlink" width="64" zoomAndPan="magnify" viewBox="0 0 48 48" height="64" preserveAspectRatio="xMidYMid meet" version="1.2"><defs><clipPath id="60006c1b5f"><path d="M 0.488281 0 L 47.507812 0 L 47.507812 47.019531 L 0.488281 47.019531 Z M 0.488281 0 "/></clipPath></defs><g id="f71ac433ba"><g clip-rule="nonzero" clip-path="url(#60006c1b5f)"><path style=" stroke:none;fill-rule:nonzero;fill:#ffffff;fill-opacity:1;" d="M 0.488281 0 L 47.511719 0 L 47.511719 47.019531 L 0.488281 47.019531 Z M 0.488281 0 "/><path style=" stroke:none;fill-rule:nonzero;fill:#ffffff;fill-opacity:1;" d="M 0.488281 0 L 47.511719 0 L 47.511719 47.019531 L 0.488281 47.019531 Z M 0.488281 0 "/></g><path style=" stroke:none;fill-rule:nonzero;fill:#0cc0df;fill-opacity:1;" d="M 6.296875 37.324219 C 4.679688 37.324219 3.355469 36 3.355469 34.382812 L 3.355469 12.855469 C 3.355469 11.242188 4.679688 9.917969 6.296875 9.917969 C 7.910156 9.917969 9.234375 11.242188 9.234375 12.855469 L 9.234375 34.308594 C 9.234375 36 7.910156 37.324219 6.296875 37.324219 Z M 6.296875 37.324219 "/><path style=" stroke:none;fill-rule:nonzero;fill:#0cc0df;fill-opacity:1;" d="M 41.488281 37.324219 C 39.871094 37.324219 38.546875 36 38.546875 34.382812 L 38.546875 12.929688 C 38.546875 11.3125 39.871094 9.992188 41.488281 9.992188 C 43.105469 9.992188 44.425781 11.3125 44.425781 12.929688 L 44.425781 34.382812 C 44.425781 36 43.105469 37.324219 41.488281 37.324219 Z M 41.488281 37.324219 "/><path style=" stroke:none;fill-rule:nonzero;fill:#0cc0df;fill-opacity:1;" d="M 23.929688 45.917969 C 22.3125 45.917969 20.988281 44.597656 20.988281 42.980469 L 20.988281 4.261719 C 20.988281 2.644531 22.3125 1.324219 23.929688 1.324219 C 25.542969 1.324219 26.867188 2.644531 26.867188 4.261719 L 26.867188 42.90625 C 26.867188 44.597656 25.542969 45.917969 23.929688 45.917969 Z M 23.929688 45.917969 "/></g></svg>